<?xml version="1.0" encoding="UTF-8"?>
<!DOCTYPE svg PUBLIC "-//W3C//DTD SVG 1.1//EN" "http://www.w3.org/Graphics/SVG/1.1/DTD/svg11.dtd">
<svg xmlns="http://www.w3.org/2000/svg"
     viewBox="150 400 250 230"
     width="100px" height="100px"
     preserveAspectRatio="xMidYMid meet"
     style="shape-rendering:geometricPrecision; text-rendering:geometricPrecision; image-rendering:optimizeQuality; fill-rule:evenodd; clip-rule:evenodd">
<g><path style="opacity:1" fill="#d15349" d="M 262.5,407.5 C 253.791,407.833 253.458,409.167 261.5,411.5C 248.908,410.862 238.242,415.028 229.5,424C 228.563,424.692 227.897,424.525 227.5,423.5C 228.833,422.5 230.167,421.5 231.5,420.5C 239.212,413.325 248.212,408.658 258.5,406.5C 260.045,406.511 261.378,406.844 262.5,407.5 Z"/></g>
<g><path style="opacity:1" fill="#b72823" d="M 262.5,402.5 C 266.301,403.201 269.968,404.368 273.5,406C 280.105,410.136 287.105,413.469 294.5,416C 303.167,416.333 311.833,416.667 320.5,417C 328.857,418.372 335.357,422.539 340,429.5C 343.791,437.54 346.791,445.873 349,454.5C 351.029,458.58 353.529,462.246 356.5,465.5C 356.5,466.167 356.167,466.5 355.5,466.5C 354.178,466.67 353.011,466.337 352,465.5C 349.667,462.167 347.333,458.833 345,455.5C 342.596,448.228 339.763,441.228 336.5,434.5C 333.072,429.11 328.405,425.11 322.5,422.5C 311.515,422.059 300.515,420.725 289.5,418.5C 280.573,414.532 271.573,410.866 262.5,407.5C 261.378,406.844 260.045,406.511 258.5,406.5C 248.212,408.658 239.212,413.325 231.5,420.5C 231.351,419.448 231.517,418.448 232,417.5C 241.334,410.256 251.501,405.256 262.5,402.5 Z"/></g>
<g><path style="opacity:1" fill="#e19081" d="M 262.5,407.5 C 271.573,410.866 280.573,414.532 289.5,418.5C 289.158,419.338 288.492,419.672 287.5,419.5C 282.438,418.035 277.438,416.368 272.5,414.5C 268.989,413.336 265.323,412.336 261.5,411.5C 253.458,409.167 253.791,407.833 262.5,407.5 Z"/></g>
<g><path style="opacity:1" fill="#851610" d="M 340.5,459.5 C 332.302,448.966 322.302,440.632 310.5,434.5C 292.298,424.466 272.964,421.133 252.5,424.5C 240.979,425.785 230.312,429.451 220.5,435.5C 220.831,433.678 221.498,432.011 222.5,430.5C 226.18,428.768 229.847,426.935 233.5,425C 236.117,424.178 238.784,423.678 241.5,423.5C 245.504,423.27 249.171,422.103 252.5,420C 256.824,419.418 261.157,418.918 265.5,418.5C 276.966,421.378 288.633,423.211 300.5,424C 307.268,426.883 313.935,430.05 320.5,433.5C 324.977,436.143 328.643,439.643 331.5,444C 336.366,445.87 339.533,449.37 341,454.5C 341.64,456.265 341.473,457.932 340.5,459.5 Z"/></g>
<g><path style="opacity:1" fill="#a51b17" d="M 272.5,414.5 C 277.438,416.368 282.438,418.035 287.5,419.5C 295.57,421.625 303.904,423.125 312.5,424C 316.09,425.53 319.757,426.864 323.5,428C 326.556,429.856 329.556,431.689 332.5,433.5C 333.401,434.29 334.068,435.29 334.5,436.5C 337.613,443.403 340.78,450.403 344,457.5C 346.284,461.614 349.117,465.28 352.5,468.5C 351.738,470.262 350.404,471.262 348.5,471.5C 345.474,467.795 342.808,463.795 340.5,459.5C 341.473,457.932 341.64,456.265 341,454.5C 339.533,449.37 336.366,445.87 331.5,444C 328.643,439.643 324.977,436.143 320.5,433.5C 313.935,430.05 307.268,426.883 300.5,424C 288.633,423.211 276.966,421.378 265.5,418.5C 261.157,418.918 256.824,419.418 252.5,420C 249.171,422.103 245.504,423.27 241.5,423.5C 241.369,422.624 241.702,421.957 242.5,421.5C 245.325,420.617 247.992,419.45 250.5,418C 249.027,417.29 248.36,416.124 248.5,414.5C 256.333,413.332 264.333,413.332 272.5,414.5 Z"/></g>
<g><path style="opacity:1" fill="#ce4942" d="M 289.5,418.5 C 300.515,420.725 311.515,422.059 322.5,422.5C 321.127,422.343 319.793,422.51 318.5,423C 321.557,425.364 324.89,427.364 328.5,429C 330.041,430.371 331.375,431.871 332.5,433.5C 329.556,431.689 326.556,429.856 323.5,428C 319.757,426.864 316.09,425.53 312.5,424C 303.904,423.125 295.57,421.625 287.5,419.5C 288.492,419.672 289.158,419.338 289.5,418.5 Z"/></g>
<g><path style="opacity:1" fill="#d0a055" d="M 252.5,424.5 C 272.964,421.133 292.298,424.466 310.5,434.5C 309.178,434.67 308.011,434.337 307,433.5C 306.517,434.448 306.351,435.448 306.5,436.5C 291.351,429.197 275.351,426.197 258.5,427.5C 259.609,426.71 260.942,426.21 262.5,426C 259.312,424.684 255.978,424.184 252.5,424.5 Z"/></g>
<g><path style="opacity:1" fill="#e6958a" d="M 322.5,422.5 C 328.405,425.11 333.072,429.11 336.5,434.5C 336.5,435.833 335.833,436.5 334.5,436.5C 334.068,435.29 333.401,434.29 332.5,433.5C 331.375,431.871 330.041,430.371 328.5,429C 324.89,427.364 321.557,425.364 318.5,423C 319.793,422.51 321.127,422.343 322.5,422.5 Z"/></g>
<g><path style="opacity:1" fill="#a5261e" d="M 262.5,402.5 C 251.501,405.256 241.334,410.256 232,417.5C 231.517,418.448 231.351,419.448 231.5,420.5C 230.167,421.5 228.833,422.5 227.5,423.5C 223.687,425.908 219.687,428.075 215.5,430C 206.196,432.2 197.029,435.033 188,438.5C 187.098,438.257 186.265,437.923 185.5,437.5C 187.428,435.526 189.761,434.026 192.5,433C 202.057,430.612 211.39,427.612 220.5,424C 226.5,418.667 232.5,413.333 238.5,408C 245.791,402.341 253.791,400.507 262.5,402.5 Z"/></g>
<g><path style="opacity:1" fill="#e6cb85" d="M 252.5,424.5 C 255.978,424.184 259.312,424.684 262.5,426C 260.942,426.21 259.609,426.71 258.5,427.5C 243.924,428.802 230.591,433.469 218.5,441.5C 216.847,441.34 215.514,440.674 214.5,439.5C 216.5,438.167 218.5,436.833 220.5,435.5C 230.312,429.451 240.979,425.785 252.5,424.5 Z"/></g>
<g><path style="opacity:1" fill="#b03128" d="M 258.5,427.5 C 257.737,428.268 256.737,428.768 255.5,429C 270.937,428.851 285.937,431.185 300.5,436C 316.483,444.822 330.15,456.322 341.5,470.5C 342.488,471.795 343.488,473.128 344.5,474.5C 343.167,475.933 341.667,477.267 340,478.5C 339.617,477.944 339.117,477.611 338.5,477.5C 331.625,463.957 321.625,453.29 308.5,445.5C 298.154,439.074 286.821,435.407 274.5,434.5C 254.665,431.959 236.665,436.626 220.5,448.5C 218.833,449.833 217.167,451.167 215.5,452.5C 214.884,450.583 213.55,449.416 211.5,449C 212.056,448.617 212.389,448.117 212.5,447.5C 214.194,445.139 216.194,443.139 218.5,441.5C 230.591,433.469 243.924,428.802 258.5,427.5 Z"/></g>
<g><path style="opacity:1" fill="#e5be77" d="M 274.5,434.5 C 269.833,435.167 265.167,435.833 260.5,436.5C 246.559,437.808 233.893,442.474 222.5,450.5C 221.167,450.5 220.5,449.833 220.5,448.5C 236.665,436.626 254.665,431.959 274.5,434.5 Z"/></g>
<g><path style="opacity:1" fill="#dbac66" d="M 274.5,434.5 C 286.821,435.407 298.154,439.074 308.5,445.5C 307.5,445.833 306.833,446.5 306.5,447.5C 292.378,439.137 277.044,435.47 260.5,436.5C 265.167,435.833 269.833,435.167 274.5,434.5 Z"/></g>
<g><path style="opacity:1" fill="#a6261e" d="M 260.5,436.5 C 277.044,435.47 292.378,439.137 306.5,447.5C 319.603,455.269 329.603,465.936 336.5,479.5C 336.573,481.027 335.906,482.027 334.5,482.5C 331.3,476.767 327.8,471.1 324,465.5C 322.629,463.959 321.129,462.625 319.5,461.5C 317.706,459.203 315.706,457.037 313.5,455C 296.142,441.779 276.476,436.445 254.5,439C 248.489,440.079 242.822,441.913 237.5,444.5C 232.98,446.591 228.647,448.925 224.5,451.5C 223.527,451.987 222.527,452.487 221.5,453C 212.463,461.216 204.963,470.716 199,481.5C 198.506,483.134 198.34,484.801 198.5,486.5C 198.753,488.827 198.086,490.827 196.5,492.5C 196.709,493.086 197.043,493.586 197.5,494C 196.301,495.694 194.968,497.194 193.5,498.5C 192.732,499.263 192.232,500.263 192,501.5C 191.401,510.516 191.568,519.516 192.5,528.5C 186.273,496.284 196.273,470.284 222.5,450.5C 233.893,442.474 246.559,437.808 260.5,436.5 Z"/></g>
<g><path style="opacity:1" fill="#981d18" d="M 258.5,427.5 C 275.351,426.197 291.351,429.197 306.5,436.5C 321.443,444.442 333.109,455.776 341.5,470.5C 330.15,456.322 316.483,444.822 300.5,436C 285.937,431.185 270.937,428.851 255.5,429C 256.737,428.768 257.737,428.268 258.5,427.5 Z"/></g>
<g><path style="opacity:1" fill="#ebd199" d="M 310.5,434.5 C 322.302,440.632 332.302,448.966 340.5,459.5C 342.808,463.795 345.474,467.795 348.5,471.5C 347.965,473.446 346.632,474.446 344.5,474.5C 343.488,473.128 342.488,471.795 341.5,470.5C 333.109,455.776 321.443,444.442 306.5,436.5C 306.351,435.448 306.517,434.448 307,433.5C 308.011,434.337 309.178,434.67 310.5,434.5 Z"/></g>
<g><path style="opacity:1" fill="#d3ab5e" d="M 214.5,439.5 C 215.514,440.674 216.847,441.34 218.5,441.5C 216.194,443.139 214.194,445.139 212.5,447.5C 208.598,449.893 205.098,452.893 202,456.5C 195.793,464.26 190.626,472.593 186.5,481.5C 186.565,481.062 186.399,480.728 186,480.5C 185.138,482.087 184.471,483.754 184,485.5C 183.667,485.167 183.333,484.833 183,484.5C 182.777,486.881 181.61,488.547 179.5,489.5C 185.73,468.951 197.397,452.284 214.5,439.5 Z"/></g>
<g><path style="opacity:1" fill="#d0544d" d="M 336.5,434.5 C 339.763,441.228 342.596,448.228 345,455.5C 347.333,458.833 349.667,462.167 352,465.5C 353.011,466.337 354.178,466.67 355.5,466.5C 354.71,467.401 353.71,468.068 352.5,468.5C 349.117,465.28 346.284,461.614 344,457.5C 340.78,450.403 337.613,443.403 334.5,436.5C 335.833,436.5 336.5,435.833 336.5,434.5 Z"/></g>
<g><path style="opacity:1" fill="#ead096" d="M 308.5,445.5 C 321.625,453.29 331.625,463.957 338.5,477.5C 338.167,478.5 337.5,479.167 336.5,479.5C 329.603,465.936 319.603,455.269 306.5,447.5C 306.833,446.5 307.5,445.833 308.5,445.5 Z"/></g>
<g><path style="opacity:1" fill="#dabc76" d="M 364.5,473.5 C 363.167,474.167 362.167,475.167 361.5,476.5C 360.167,477.167 359.167,478.167 358.5,479.5C 357.5,479.833 356.833,480.5 356.5,481.5C 355.5,482.167 354.5,482.833 353.5,483.5C 352.432,482.566 351.099,482.232 349.5,482.5C 352.833,478.5 356.5,474.833 360.5,471.5C 364.665,467.503 368.998,463.67 373.5,460C 368.456,462.03 363.789,464.864 359.5,468.5C 336.331,484.997 315.331,503.997 296.5,525.5C 288.19,535.481 279.856,545.481 271.5,555.5C 263.239,546.734 254.239,538.901 244.5,532C 241.303,529.88 238.303,530.047 235.5,532.5C 236.445,529.013 238.778,527.68 242.5,528.5C 243.833,528.833 245.167,529.167 246.5,529.5C 250.101,531.977 253.767,534.477 257.5,537C 261.711,541.547 266.211,545.714 271,549.5C 277.972,541.353 284.805,533.02 291.5,524.5C 292.5,524.167 293.167,523.5 293.5,522.5C 296.219,520.781 298.219,518.447 299.5,515.5C 310.891,504.106 322.558,493.106 334.5,482.5C 335.906,482.027 336.573,481.027 336.5,479.5C 337.5,479.167 338.167,478.5 338.5,477.5C 339.117,477.611 339.617,477.944 340,478.5C 341.667,477.267 343.167,475.933 344.5,474.5C 346.632,474.446 347.965,473.446 348.5,471.5C 350.404,471.262 351.738,470.262 352.5,468.5C 353.71,468.068 354.71,467.401 355.5,466.5C 356.167,466.5 356.5,466.167 356.5,465.5C 366.285,459.771 376.285,454.271 386.5,449C 387.833,448.333 389.167,448.333 390.5,449C 381.636,457.033 372.969,465.2 364.5,473.5 Z"/></g>
<g><path style="opacity:1" fill="#ca4943" d="M 296.5,481.5 C 294.549,481.773 293.049,481.107 292,479.5C 289.499,482.173 288.999,485.173 290.5,488.5C 288.999,489.752 287.332,490.752 285.5,491.5C 284.614,492.325 284.281,493.325 284.5,494.5C 280.24,486.595 273.573,482.928 264.5,483.5C 268.022,482.272 271.689,481.105 275.5,480C 273.352,475.962 271.186,475.795 269,479.5C 268.138,477.913 267.471,476.246 267,474.5C 265.577,476.345 264.41,478.345 263.5,480.5C 263.687,479.183 263.02,477.85 261.5,476.5C 260.031,478.375 258.198,478.375 256,476.5C 255.072,478.335 253.906,478.668 252.5,477.5C 250.951,473.283 248.284,469.95 244.5,467.5C 245.802,465.799 247.469,464.632 249.5,464C 248.663,462.989 248.33,461.822 248.5,460.5C 265.897,453.909 277.064,459.576 282,477.5C 283.011,478.337 284.178,478.67 285.5,478.5C 285.812,471.578 285.479,464.744 284.5,458C 269.191,453.606 253.857,453.439 238.5,457.5C 237.022,457.762 235.689,457.429 234.5,456.5C 233.158,455.124 231.825,453.791 230.5,452.5C 228.632,452.946 226.799,453.279 225,453.5C 224.536,452.906 224.369,452.239 224.5,451.5C 228.647,448.925 232.98,446.591 237.5,444.5C 239.199,444.34 240.866,444.506 242.5,445C 241.378,446.613 241.878,447.78 244,448.5C 244.043,445.783 245.043,445.116 247,446.5C 249.719,443.241 252.886,442.741 256.5,445C 255.833,445.333 255.167,445.667 254.5,446C 260.301,448.432 260.968,447.432 256.5,443C 257.667,442.5 258.5,441.667 259,440.5C 259.414,440.957 259.914,441.291 260.5,441.5C 261.623,440.456 262.956,439.79 264.5,439.5C 267.826,440.047 271.16,440.547 274.5,441C 275.218,442.987 276.218,444.821 277.5,446.5C 278.192,445.975 278.692,445.308 279,444.5C 281.877,445.456 284.544,446.789 287,448.5C 287.604,446.314 288.77,446.148 290.5,448C 289.965,450.109 288.965,450.609 287.5,449.5C 286.5,450 285.5,450.5 284.5,451C 288.279,452.816 291.612,452.65 294.5,450.5C 296.171,452.51 296.838,454.843 296.5,457.5C 294.876,457.36 293.71,458.027 293,459.5C 292.751,458.376 292.251,457.376 291.5,456.5C 291.167,456.667 290.833,456.833 290.5,457C 291.833,458.667 291.833,460.333 290.5,462C 293.415,463.517 296.082,466.017 298.5,469.5C 298.052,471.534 296.885,473.534 295,475.5C 293.933,473.717 292.433,473.217 290.5,474C 292.525,475.677 294.859,476.677 297.5,477C 295.452,478.226 295.119,479.726 296.5,481.5 Z"/></g>
<g><path style="opacity:1" fill="#363a44" d="M 360.5,471.5 C 359.89,470.609 359.557,469.609 359.5,468.5C 363.789,464.864 368.456,462.03 373.5,460C 368.998,463.67 364.665,467.503 360.5,471.5 Z"/></g>
<g><path style="opacity:1" fill="#b62721" d="M 261.5,411.5 C 265.323,412.336 268.989,413.336 272.5,414.5C 264.333,413.332 256.333,413.332 248.5,414.5C 248.36,416.124 249.027,417.29 250.5,418C 247.992,419.45 245.325,420.617 242.5,421.5C 241.702,421.957 241.369,422.624 241.5,423.5C 238.784,423.678 236.117,424.178 233.5,425C 229.847,426.935 226.18,428.768 222.5,430.5C 215.641,434.511 208.641,438.344 201.5,442C 198.732,443.762 197.232,446.262 197,449.5C 190.767,456.053 185.767,463.387 182,471.5C 178.86,484.876 175.86,498.209 173,511.5C 172.333,516.833 172.333,522.167 173,527.5C 174.131,532.517 175.297,537.517 176.5,542.5C 173.234,537.063 171.401,531.063 171,524.5C 170.333,517.833 170.333,511.167 171,504.5C 172.97,500.101 173.803,495.435 173.5,490.5C 173.649,489.448 173.483,488.448 173,487.5C 168.538,495.764 164.371,504.097 160.5,512.5C 158.75,516.183 158.083,520.183 158.5,524.5C 157.152,519.594 157.318,514.594 159,509.5C 171.66,491.682 177.993,471.682 178,449.5C 179.341,446.978 180.174,444.311 180.5,441.5C 181.579,439.457 183.246,438.124 185.5,437.5C 186.265,437.923 187.098,438.257 188,438.5C 197.029,435.033 206.196,432.2 215.5,430C 219.687,428.075 223.687,425.908 227.5,423.5C 227.897,424.525 228.563,424.692 229.5,424C 238.242,415.028 248.908,410.862 261.5,411.5 Z"/></g>
<g><path style="opacity:1" fill="#cc5248" d="M 188.5,445.5 C 186.645,449.863 183.811,453.53 180,456.5C 179.667,457.5 179.333,458.5 179,459.5C 178.219,456.183 178.719,453.183 180.5,450.5C 180.369,451.239 180.536,451.906 181,452.5C 182.736,449.261 185.236,446.927 188.5,445.5 Z"/></g>
<g><path style="opacity:1" fill="#e2988c" d="M 188.5,445.5 C 185.236,446.927 182.736,449.261 181,452.5C 180.536,451.906 180.369,451.239 180.5,450.5C 182.691,445.445 186.357,442.612 191.5,442C 190.29,443.039 189.29,444.206 188.5,445.5 Z"/></g>
<g><path style="opacity:1" fill="#c6403b" d="M 319.5,461.5 C 317.131,461.851 314.797,462.018 312.5,462C 313.833,460.16 313.666,459.66 312,460.5C 311.674,463.332 312.174,465.999 313.5,468.5C 311.071,468.884 308.737,469.551 306.5,470.5C 306.329,473.797 306.995,474.131 308.5,471.5C 310.55,472.077 311.55,473.41 311.5,475.5C 309.473,475.338 307.473,475.505 305.5,476C 306.711,477.113 306.711,478.28 305.5,479.5C 306.376,480.251 307.376,480.751 308.5,481C 306.731,482.019 305.064,482.186 303.5,481.5C 302.114,483.644 300.614,484.977 299,485.5C 296.833,484 297,482.833 299.5,482C 298.552,481.517 297.552,481.351 296.5,481.5C 295.119,479.726 295.452,478.226 297.5,477C 294.859,476.677 292.525,475.677 290.5,474C 292.433,473.217 293.933,473.717 295,475.5C 296.885,473.534 298.052,471.534 298.5,469.5C 296.082,466.017 293.415,463.517 290.5,462C 291.833,460.333 291.833,458.667 290.5,457C 290.833,456.833 291.167,456.667 291.5,456.5C 292.251,457.376 292.751,458.376 293,459.5C 293.71,458.027 294.876,457.36 296.5,457.5C 296.838,454.843 296.171,452.51 294.5,450.5C 291.612,452.65 288.279,452.816 284.5,451C 285.5,450.5 286.5,450 287.5,449.5C 288.965,450.609 289.965,450.109 290.5,448C 288.77,446.148 287.604,446.314 287,448.5C 284.544,446.789 281.877,445.456 279,444.5C 278.692,445.308 278.192,445.975 277.5,446.5C 276.218,444.821 275.218,442.987 274.5,441C 271.16,440.547 267.826,440.047 264.5,439.5C 262.956,439.79 261.623,440.456 260.5,441.5C 259.914,441.291 259.414,440.957 259,440.5C 258.5,441.667 257.667,442.5 256.5,443C 260.968,447.432 260.301,448.432 254.5,446C 255.167,445.667 255.833,445.333 256.5,445C 252.886,442.741 249.719,443.241 247,446.5C 245.043,445.116 244.043,445.783 244,448.5C 241.878,447.78 241.378,446.613 242.5,445C 240.866,444.506 239.199,444.34 237.5,444.5C 242.822,441.913 248.489,440.079 254.5,439C 276.476,436.445 296.142,441.779 313.5,455C 315.706,457.037 317.706,459.203 319.5,461.5 Z"/></g>
<g><path style="opacity:1" fill="#c33733" d="M 224.5,451.5 C 224.369,452.239 224.536,452.906 225,453.5C 226.799,453.279 228.632,452.946 230.5,452.5C 231.825,453.791 233.158,455.124 234.5,456.5C 235.689,457.429 237.022,457.762 238.5,457.5C 222.079,466.155 218.746,478.322 228.5,494C 231.502,496.503 234.835,498.503 238.5,500C 236.593,501.122 234.593,501.955 232.5,502.5C 230.7,500.95 228.533,499.95 226,499.5C 224.933,501.283 223.433,501.783 221.5,501C 220.027,500.29 219.36,499.124 219.5,497.5C 218.127,497.657 216.793,497.49 215.5,497C 216.308,496.692 216.975,496.192 217.5,495.5C 213.471,494.805 209.804,493.305 206.5,491C 207.451,490.282 207.617,489.449 207,488.5C 206.167,489.5 205.333,490.5 204.5,491.5C 203.261,489.993 203.595,488.826 205.5,488C 204.5,487.667 203.5,487.333 202.5,487C 202.833,486.667 203.167,486.333 203.5,486C 202.256,485.544 201.423,486.044 201,487.5C 200.329,486.748 199.496,486.414 198.5,486.5C 198.34,484.801 198.506,483.134 199,481.5C 204.963,470.716 212.463,461.216 221.5,453C 222.527,452.487 223.527,451.987 224.5,451.5 Z"/></g>
<g><path style="opacity:1" fill="#c13533" d="M 319.5,461.5 C 321.129,462.625 322.629,463.959 324,465.5C 327.8,471.1 331.3,476.767 334.5,482.5C 322.558,493.106 310.891,504.106 299.5,515.5C 299.062,515.565 298.728,515.399 298.5,515C 299.656,511.704 300.989,508.537 302.5,505.5C 301.5,505.5 300.5,505.5 299.5,505.5C 299.5,504.5 299.5,503.5 299.5,502.5C 297.127,501.706 294.794,500.706 292.5,499.5C 291.304,499.846 291.304,500.346 292.5,501C 291.552,501.483 290.552,501.649 289.5,501.5C 289.912,499.027 288.912,497.694 286.5,497.5C 285.599,496.71 284.932,495.71 284.5,494.5C 284.281,493.325 284.614,492.325 285.5,491.5C 287.332,490.752 288.999,489.752 290.5,488.5C 288.999,485.173 289.499,482.173 292,479.5C 293.049,481.107 294.549,481.773 296.5,481.5C 297.552,481.351 298.552,481.517 299.5,482C 297,482.833 296.833,484 299,485.5C 300.614,484.977 302.114,483.644 303.5,481.5C 305.064,482.186 306.731,482.019 308.5,481C 307.376,480.751 306.376,480.251 305.5,479.5C 306.711,478.28 306.711,477.113 305.5,476C 307.473,475.505 309.473,475.338 311.5,475.5C 311.55,473.41 310.55,472.077 308.5,471.5C 306.995,474.131 306.329,473.797 306.5,470.5C 308.737,469.551 311.071,468.884 313.5,468.5C 312.174,465.999 311.674,463.332 312,460.5C 313.666,459.66 313.833,460.16 312.5,462C 314.797,462.018 317.131,461.851 319.5,461.5 Z"/></g>
<g><path style="opacity:1" fill="#8e140e" d="M 222.5,430.5 C 221.498,432.011 220.831,433.678 220.5,435.5C 218.5,436.833 216.5,438.167 214.5,439.5C 197.397,452.284 185.73,468.951 179.5,489.5C 176.545,500.698 175.878,512.032 177.5,523.5C 184.696,565.532 209.029,591.698 250.5,602C 252.81,602.497 255.143,602.663 257.5,602.5C 274.696,604.528 291.03,601.528 306.5,593.5C 326.151,584.015 340.651,569.348 350,549.5C 352.348,543.291 354.182,536.958 355.5,530.5C 358.691,515.226 357.691,500.226 352.5,485.5C 352.863,484.817 353.196,484.15 353.5,483.5C 354.5,482.833 355.5,482.167 356.5,481.5C 362.606,493.06 364.773,505.393 363,518.5C 362.226,522.049 360.893,525.382 359,528.5C 357.712,538.987 355.212,548.987 351.5,558.5C 348.641,565.547 344.307,571.547 338.5,576.5C 330.471,580.69 323.804,586.524 318.5,594C 314.081,597.425 309.415,600.425 304.5,603C 295.935,605.02 287.268,606.52 278.5,607.5C 258.52,606.608 239.187,602.775 220.5,596C 214.329,592.404 208.662,588.071 203.5,583C 202.552,582.517 201.552,582.351 200.5,582.5C 197.82,578.463 195.154,574.463 192.5,570.5C 188.927,564.359 185.094,558.359 181,552.5C 179.214,549.264 177.714,545.93 176.5,542.5C 175.297,537.517 174.131,532.517 173,527.5C 172.333,522.167 172.333,516.833 173,511.5C 175.86,498.209 178.86,484.876 182,471.5C 185.767,463.387 190.767,456.053 197,449.5C 197.232,446.262 198.732,443.762 201.5,442C 208.641,438.344 215.641,434.511 222.5,430.5 Z"/></g>
<g><path style="opacity:1" fill="#c33c38" d="M 248.5,460.5 C 248.33,461.822 248.663,462.989 249.5,464C 247.469,464.632 245.802,465.799 244.5,467.5C 248.284,469.95 250.951,473.283 252.5,477.5C 253.906,478.668 255.072,478.335 256,476.5C 258.198,478.375 260.031,478.375 261.5,476.5C 263.02,477.85 263.687,479.183 263.5,480.5C 264.41,478.345 265.577,476.345 267,474.5C 267.471,476.246 268.138,477.913 269,479.5C 271.186,475.795 273.352,475.962 275.5,480C 271.689,481.105 268.022,482.272 264.5,483.5C 258.21,483.978 253.544,486.978 250.5,492.5C 250.667,492.833 250.833,493.167 251,493.5C 256.904,487.028 263.738,485.861 271.5,490C 273.087,491.845 274.421,493.845 275.5,496C 274.056,498.034 272.056,498.868 269.5,498.5C 262.214,497.735 254.881,497.235 247.5,497C 239.125,491.379 235.958,483.546 238,473.5C 239.613,467.588 243.113,463.255 248.5,460.5 Z"/></g>
<g><path style="opacity:1" fill="#192741" d="M 359.5,468.5 C 359.557,469.609 359.89,470.609 360.5,471.5C 356.5,474.833 352.833,478.5 349.5,482.5C 335.055,497.937 321.388,513.937 308.5,530.5C 308.5,529.5 308.5,528.5 308.5,527.5C 306.302,526.986 304.302,525.986 302.5,524.5C 300.678,524.463 298.678,524.796 296.5,525.5C 315.331,503.997 336.331,484.997 359.5,468.5 Z"/></g>
<g><path style="opacity:1" fill="#e68e7f" d="M 361.5,476.5 C 363.748,479.982 366.248,483.316 369,486.5C 370.122,488.407 370.955,490.407 371.5,492.5C 371.649,493.552 371.483,494.552 371,495.5C 368.743,490.423 365.576,486.09 361.5,482.5C 360.833,481.167 359.833,480.167 358.5,479.5C 359.167,478.167 360.167,477.167 361.5,476.5 Z"/></g>
<g><path style="opacity:1" fill="#dcb869" d="M 220.5,448.5 C 220.5,449.833 221.167,450.5 222.5,450.5C 196.273,470.284 186.273,496.284 192.5,528.5C 194.724,541.946 200.391,553.613 209.5,563.5C 217.934,573.262 228.268,580.262 240.5,584.5C 247.061,587.549 254.061,589.216 261.5,589.5C 262.609,590.29 263.942,590.79 265.5,591C 263.19,591.497 260.857,591.663 258.5,591.5C 239.965,589.564 223.965,582.231 210.5,569.5C 187.948,544.317 182.115,515.651 193,483.5C 198.461,471.561 205.961,461.228 215.5,452.5C 217.167,451.167 218.833,449.833 220.5,448.5 Z"/></g>
<g><path style="opacity:1" fill="#e2c87f" d="M 349.5,482.5 C 351.099,482.232 352.432,482.566 353.5,483.5C 353.196,484.15 352.863,484.817 352.5,485.5C 357.691,500.226 358.691,515.226 355.5,530.5C 353.554,529.965 352.554,528.632 352.5,526.5C 354.597,513.512 353.43,500.845 349,488.5C 346.889,490.102 345.389,492.102 344.5,494.5C 346.568,504.5 346.901,514.5 345.5,524.5C 343.824,523.817 343.157,522.483 343.5,520.5C 343.666,514.824 343.499,509.157 343,503.5C 342.83,501.285 342.163,499.285 341,497.5C 333.914,504.746 327.414,512.412 321.5,520.5C 314.783,528.549 308.45,536.883 302.5,545.5C 301.624,545.631 300.957,545.298 300.5,544.5C 302.038,542.757 303.038,540.757 303.5,538.5C 305.167,535.833 306.833,533.167 308.5,530.5C 321.388,513.937 335.055,497.937 349.5,482.5 Z"/></g>
<g><path style="opacity:1" fill="#192640" d="M 248.5,460.5 C 243.113,463.255 239.613,467.588 238,473.5C 235.958,483.546 239.125,491.379 247.5,497C 254.881,497.235 262.214,497.735 269.5,498.5C 269.5,499.5 269.5,500.5 269.5,501.5C 261.826,501.334 254.159,501.5 246.5,502C 243.316,502.754 240.649,504.254 238.5,506.5C 236.833,507.833 235.167,509.167 233.5,510.5C 231.811,509.696 230.145,508.696 228.5,507.5C 229.826,507.795 231.159,507.295 232.5,506C 231.756,504.961 230.756,504.461 229.5,504.5C 230.29,503.599 231.29,502.932 232.5,502.5C 234.593,501.955 236.593,501.122 238.5,500C 234.835,498.503 231.502,496.503 228.5,494C 218.746,478.322 222.079,466.155 238.5,457.5C 253.857,453.439 269.191,453.606 284.5,458C 285.479,464.744 285.812,471.578 285.5,478.5C 284.178,478.67 283.011,478.337 282,477.5C 277.064,459.576 265.897,453.909 248.5,460.5 Z"/></g>
<g><path style="opacity:1" fill="#ddc071" d="M 186.5,481.5 C 182.231,493.45 180.231,505.783 180.5,518.5C 179.062,519.282 178.062,520.949 177.5,523.5C 175.878,512.032 176.545,500.698 179.5,489.5C 181.61,488.547 182.777,486.881 183,484.5C 183.333,484.833 183.667,485.167 184,485.5C 184.471,483.754 185.138,482.087 186,480.5C 186.399,480.728 186.565,481.062 186.5,481.5 Z"/></g>
<g><path style="opacity:1" fill="#e7c985" d="M 264.5,483.5 C 273.573,482.928 280.24,486.595 284.5,494.5C 284.932,495.71 285.599,496.71 286.5,497.5C 286.953,498.458 287.619,499.292 288.5,500C 285.963,502.906 283.796,506.073 282,509.5C 280.27,511.402 278.437,513.069 276.5,514.5C 265.056,519.37 256.056,516.703 249.5,506.5C 249.56,505.957 249.893,505.624 250.5,505.5C 256.9,513.044 264.4,514.378 273,509.5C 277.001,504.504 275.834,501.837 269.5,501.5C 269.5,500.5 269.5,499.5 269.5,498.5C 272.056,498.868 274.056,498.034 275.5,496C 274.421,493.845 273.087,491.845 271.5,490C 263.738,485.861 256.904,487.028 251,493.5C 250.833,493.167 250.667,492.833 250.5,492.5C 253.544,486.978 258.21,483.978 264.5,483.5 Z"/></g>
<g><path style="opacity:1" fill="#d97b6b" d="M 173.5,490.5 C 169.348,498.804 165.181,507.137 161,515.5C 160.517,514.552 160.351,513.552 160.5,512.5C 164.371,504.097 168.538,495.764 173,487.5C 173.483,488.448 173.649,489.448 173.5,490.5 Z"/></g>
<g><path style="opacity:1" fill="#c33a32" d="M 173.5,490.5 C 173.803,495.435 172.97,500.101 171,504.5C 170.333,511.167 170.333,517.833 171,524.5C 171.401,531.063 173.234,537.063 176.5,542.5C 177.714,545.93 179.214,549.264 181,552.5C 185.094,558.359 188.927,564.359 192.5,570.5C 191.833,570.5 191.5,570.833 191.5,571.5C 190.167,569.833 188.833,568.167 187.5,566.5C 183.466,557.758 177.966,550.092 171,543.5C 167.347,536.871 164.847,529.871 163.5,522.5C 163.167,522.167 162.833,521.833 162.5,521.5C 161.719,522.729 161.219,524.062 161,525.5C 160.329,524.748 159.496,524.414 158.5,524.5C 158.083,520.183 158.75,516.183 160.5,512.5C 160.351,513.552 160.517,514.552 161,515.5C 165.181,507.137 169.348,498.804 173.5,490.5 Z"/></g>
<g><path style="opacity:1" fill="#b52321" d="M 232.5,502.5 C 231.29,502.932 230.29,503.599 229.5,504.5C 225.922,506.075 222.589,508.075 219.5,510.5C 217.516,510.383 215.85,511.05 214.5,512.5C 213.543,515.28 212.376,517.947 211,520.5C 210.626,519.584 210.126,518.75 209.5,518C 207.109,517.713 204.776,517.213 202.5,516.5C 200.831,517.89 199.164,518.223 197.5,517.5C 196.719,518.737 195.719,519.737 194.5,520.5C 194.167,520.167 193.833,519.833 193.5,519.5C 194.687,518.481 195.687,517.314 196.5,516C 195.256,515.544 194.423,516.044 194,517.5C 192.216,511.223 192.049,504.889 193.5,498.5C 194.968,497.194 196.301,495.694 197.5,494C 197.043,493.586 196.709,493.086 196.5,492.5C 198.086,490.827 198.753,488.827 198.5,486.5C 199.496,486.414 200.329,486.748 201,487.5C 201.423,486.044 202.256,485.544 203.5,486C 203.167,486.333 202.833,486.667 202.5,487C 203.5,487.333 204.5,487.667 205.5,488C 203.595,488.826 203.261,489.993 204.5,491.5C 205.333,490.5 206.167,489.5 207,488.5C 207.617,489.449 207.451,490.282 206.5,491C 209.804,493.305 213.471,494.805 217.5,495.5C 216.975,496.192 216.308,496.692 215.5,497C 216.793,497.49 218.127,497.657 219.5,497.5C 219.36,499.124 220.027,500.29 221.5,501C 223.433,501.783 224.933,501.283 226,499.5C 228.533,499.95 230.7,500.95 232.5,502.5 Z"/></g>
<g><path style="opacity:1" fill="#b7312a" d="M 269.5,501.5 C 275.834,501.837 277.001,504.504 273,509.5C 264.4,514.378 256.9,513.044 250.5,505.5C 249.893,505.624 249.56,505.957 249.5,506.5C 248.732,507.263 248.232,508.263 248,509.5C 246.657,508.786 245.324,509.12 244,510.5C 243.517,509.552 243.351,508.552 243.5,507.5C 240.715,507.933 238.381,509.266 236.5,511.5C 236.167,511.333 235.833,511.167 235.5,511C 236.833,509.667 238.167,508.333 239.5,507C 239.272,506.601 238.938,506.435 238.5,506.5C 240.649,504.254 243.316,502.754 246.5,502C 254.159,501.5 261.826,501.334 269.5,501.5 Z"/></g>
<g><path style="opacity:1" fill="#bf3029" d="M 286.5,497.5 C 288.912,497.694 289.912,499.027 289.5,501.5C 290.552,501.649 291.552,501.483 292.5,501C 291.304,500.346 291.304,499.846 292.5,499.5C 294.794,500.706 297.127,501.706 299.5,502.5C 299.5,503.5 299.5,504.5 299.5,505.5C 300.5,505.5 301.5,505.5 302.5,505.5C 300.989,508.537 299.656,511.704 298.5,515C 298.728,515.399 299.062,515.565 299.5,515.5C 298.219,518.447 296.219,520.781 293.5,522.5C 292.415,520.418 290.915,520.084 289,521.5C 288.395,519.519 287.395,519.185 286,520.5C 284.354,518.945 284.021,517.279 285,515.5C 283.605,516.815 282.605,516.481 282,514.5C 280.374,514.854 278.541,514.854 276.5,514.5C 278.437,513.069 280.27,511.402 282,509.5C 283.796,506.073 285.963,502.906 288.5,500C 287.619,499.292 286.953,498.458 286.5,497.5 Z"/></g>
<g><path style="opacity:1" fill="#b42724" d="M 343.5,520.5 C 343.167,520.5 342.833,520.5 342.5,520.5C 342.479,507.324 341.813,507.324 340.5,520.5C 338.248,521.333 336.081,521.333 334,520.5C 333.167,521.5 332.333,522.5 331.5,523.5C 330.808,522.975 330.308,522.308 330,521.5C 328.333,522.167 326.667,522.833 325,523.5C 323.845,522.662 322.678,521.662 321.5,520.5C 327.414,512.412 333.914,504.746 341,497.5C 342.163,499.285 342.83,501.285 343,503.5C 343.499,509.157 343.666,514.824 343.5,520.5 Z"/></g>
<g><path style="opacity:1" fill="#a22218" d="M 352.5,526.5 C 351.566,527.568 351.232,528.901 351.5,530.5C 350.883,530.611 350.383,530.944 350,531.5C 349.51,530.207 349.343,528.873 349.5,527.5C 348.041,527.567 346.708,527.234 345.5,526.5C 345.5,525.833 345.5,525.167 345.5,524.5C 346.901,514.5 346.568,504.5 344.5,494.5C 345.389,492.102 346.889,490.102 349,488.5C 353.43,500.845 354.597,513.512 352.5,526.5 Z"/></g>
<g><path style="opacity:1" fill="#b5231c" d="M 364.5,473.5 C 369.221,478.727 373.388,484.393 377,490.5C 378.544,497.084 378.877,503.751 378,510.5C 373.211,520.294 368.877,530.294 365,540.5C 364.667,550.167 364.333,559.833 364,569.5C 363.632,572.565 362.465,575.232 360.5,577.5C 350.938,580.595 341.271,583.761 331.5,587C 330.333,588.833 328.833,590.333 327,591.5C 326.667,591.167 326.333,590.833 326,590.5C 324.956,591.623 324.29,592.956 324,594.5C 318.839,598.661 314.006,603.161 309.5,608C 308.668,608.688 308.002,608.521 307.5,607.5C 310.192,605.461 309.858,604.627 306.5,605C 301.038,608.377 295.371,611.377 289.5,614C 288.851,616.481 287.851,616.814 286.5,615C 281.167,614.333 275.833,613.667 270.5,613C 268.934,612.392 267.6,611.558 266.5,610.5C 270.309,610.987 274.142,611.321 278,611.5C 281.027,611.618 283.861,611.118 286.5,610C 279.842,609.5 273.175,609.334 266.5,609.5C 270.5,608.833 274.5,608.167 278.5,607.5C 287.268,606.52 295.935,605.02 304.5,603C 309.415,600.425 314.081,597.425 318.5,594C 323.804,586.524 330.471,580.69 338.5,576.5C 336,579.832 333,582.666 329.5,585C 332.754,584.303 335.754,582.803 338.5,580.5C 343.259,575.75 347.592,570.75 351.5,565.5C 351.693,568.475 350.693,570.975 348.5,573C 350.367,573.711 351.867,573.211 353,571.5C 354.415,574.218 356.415,574.885 359,573.5C 361.142,569.03 361.809,564.363 361,559.5C 360.667,561.833 360.333,564.167 360,566.5C 359.002,569.028 358.169,569.028 357.5,566.5C 358.586,560.198 358.753,553.865 358,547.5C 356.941,552.112 355.441,556.446 353.5,560.5C 353.869,558.007 353.203,557.34 351.5,558.5C 355.212,548.987 357.712,538.987 359,528.5C 360.893,525.382 362.226,522.049 363,518.5C 364.773,505.393 362.606,493.06 356.5,481.5C 356.833,480.5 357.5,479.833 358.5,479.5C 359.833,480.167 360.833,481.167 361.5,482.5C 363.753,487.502 366.42,492.336 369.5,497C 370.76,502.525 370.76,508.025 369.5,513.5C 369.833,513.833 370.167,514.167 370.5,514.5C 374.224,507.999 375.391,500.999 374,493.5C 373.329,492.748 372.496,492.414 371.5,492.5C 370.955,490.407 370.122,488.407 369,486.5C 366.248,483.316 363.748,479.982 361.5,476.5C 362.167,475.167 363.167,474.167 364.5,473.5 Z"/></g>
<g><path style="opacity:1" fill="#d0443b" d="M 361.5,482.5 C 365.576,486.09 368.743,490.423 371,495.5C 371.483,494.552 371.649,493.552 371.5,492.5C 372.496,492.414 373.329,492.748 374,493.5C 375.391,500.999 374.224,507.999 370.5,514.5C 370.167,514.167 369.833,513.833 369.5,513.5C 370.76,508.025 370.76,502.525 369.5,497C 366.42,492.336 363.753,487.502 361.5,482.5 Z"/></g>
<g><path style="opacity:1" fill="#b5251e" d="M 238.5,506.5 C 238.938,506.435 239.272,506.601 239.5,507C 238.167,508.333 236.833,509.667 235.5,511C 235.833,511.167 236.167,511.333 236.5,511.5C 238.381,509.266 240.715,507.933 243.5,507.5C 243.351,508.552 243.517,509.552 244,510.5C 245.324,509.12 246.657,508.786 248,509.5C 248.232,508.263 248.732,507.263 249.5,506.5C 256.056,516.703 265.056,519.37 276.5,514.5C 278.541,514.854 280.374,514.854 282,514.5C 282.605,516.481 283.605,516.815 285,515.5C 284.021,517.279 284.354,518.945 286,520.5C 287.395,519.185 288.395,519.519 289,521.5C 290.915,520.084 292.415,520.418 293.5,522.5C 293.167,523.5 292.5,524.167 291.5,524.5C 291.649,523.448 291.483,522.448 291,521.5C 287.863,521.984 285.363,523.484 283.5,526C 281.251,526.863 279.418,526.363 278,524.5C 277.626,525.416 277.126,526.25 276.5,527C 273.167,527.078 269.834,525.911 266.5,523.5C 265.914,523.709 265.414,524.043 265,524.5C 261.411,522.491 257.911,521.658 254.5,522C 255.759,522.923 257.092,523.757 258.5,524.5C 258.167,524.833 257.833,525.167 257.5,525.5C 256.167,525.167 254.833,524.833 253.5,524.5C 250.526,526.344 248.193,528.011 246.5,529.5C 245.167,529.167 243.833,528.833 242.5,528.5C 241.737,527.732 240.737,527.232 239.5,527C 240.022,526.439 240.355,525.772 240.5,525C 237.581,520.931 234.914,516.764 232.5,512.5C 232.833,511.833 233.167,511.167 233.5,510.5C 235.167,509.167 236.833,507.833 238.5,506.5 Z"/></g>
<g><path style="opacity:1" fill="#0e1a2f" d="M 229.5,504.5 C 230.756,504.461 231.756,504.961 232.5,506C 231.159,507.295 229.826,507.795 228.5,507.5C 230.145,508.696 231.811,509.696 233.5,510.5C 233.167,511.167 232.833,511.833 232.5,512.5C 228.549,517.772 226.882,523.772 227.5,530.5C 227.533,549.525 236.867,560.525 255.5,563.5C 255.804,564.15 256.137,564.817 256.5,565.5C 255.398,566.176 254.398,566.842 253.5,567.5C 238.435,567.876 225.935,562.543 216,551.5C 213.445,546.983 211.612,542.316 210.5,537.5C 210.335,534.15 210.502,530.817 211,527.5C 212.806,521.222 215.639,515.555 219.5,510.5C 222.589,508.075 225.922,506.075 229.5,504.5 Z"/></g>
<g><path style="opacity:1" fill="#a91b14" d="M 291.5,524.5 C 284.805,533.02 277.972,541.353 271,549.5C 266.211,545.714 261.711,541.547 257.5,537C 253.767,534.477 250.101,531.977 246.5,529.5C 248.193,528.011 250.526,526.344 253.5,524.5C 254.833,524.833 256.167,525.167 257.5,525.5C 257.833,525.167 258.167,524.833 258.5,524.5C 257.092,523.757 255.759,522.923 254.5,522C 257.911,521.658 261.411,522.491 265,524.5C 265.414,524.043 265.914,523.709 266.5,523.5C 269.834,525.911 273.167,527.078 276.5,527C 277.126,526.25 277.626,525.416 278,524.5C 279.418,526.363 281.251,526.863 283.5,526C 285.363,523.484 287.863,521.984 291,521.5C 291.483,522.448 291.649,523.448 291.5,524.5 Z"/></g>
<g><path style="opacity:1" fill="#a61816" d="M 321.5,520.5 C 322.678,521.662 323.845,522.662 325,523.5C 326.667,522.833 328.333,522.167 330,521.5C 330.308,522.308 330.808,522.975 331.5,523.5C 332.333,522.5 333.167,521.5 334,520.5C 336.081,521.333 338.248,521.333 340.5,520.5C 340.219,524.882 338.885,528.882 336.5,532.5C 336.709,533.086 337.043,533.586 337.5,534C 336.333,535.833 335.167,537.667 334,539.5C 333.333,538.833 332.667,538.167 332,537.5C 331.259,538.641 330.425,538.641 329.5,537.5C 328.573,539.113 327.739,540.779 327,542.5C 326.692,541.692 326.192,541.025 325.5,540.5C 324.573,542.113 323.739,543.779 323,545.5C 322.107,544.289 321.274,544.289 320.5,545.5C 319.897,546.635 319.564,547.635 319.5,548.5C 317.87,547.102 316.036,546.102 314,545.5C 313.508,546.549 313.674,547.549 314.5,548.5C 313.167,548.833 311.833,549.167 310.5,549.5C 310.002,550.603 309.669,551.603 309.5,552.5C 306.849,550.585 307.183,549.085 310.5,548C 309.376,547.161 308.709,545.994 308.5,544.5C 308.921,542.342 309.421,540.342 310,538.5C 307.699,541.506 305.199,544.172 302.5,546.5C 302.5,546.167 302.5,545.833 302.5,545.5C 308.45,536.883 314.783,528.549 321.5,520.5 Z"/></g>
<g><path style="opacity:1" fill="#deba70" d="M 180.5,518.5 C 183.334,541.835 193.334,561.502 210.5,577.5C 224.796,589.977 241.462,596.977 260.5,598.5C 263.641,599.321 266.975,599.821 270.5,600C 269.5,600.333 268.5,600.667 267.5,601C 267.833,601.333 268.167,601.667 268.5,602C 264.848,602.499 261.182,602.665 257.5,602.5C 255.143,602.663 252.81,602.497 250.5,602C 209.029,591.698 184.696,565.532 177.5,523.5C 178.062,520.949 179.062,519.282 180.5,518.5 Z"/></g>
<g><path style="opacity:1" fill="#d3b36c" d="M 303.5,538.5 C 303.038,540.757 302.038,542.757 300.5,544.5C 300.957,545.298 301.624,545.631 302.5,545.5C 302.5,545.833 302.5,546.167 302.5,546.5C 295.685,555.45 289.351,564.783 283.5,574.5C 281.629,577.061 279.629,579.561 277.5,582C 270.874,583.769 266.04,581.603 263,575.5C 260.319,571.809 258.485,567.809 257.5,563.5C 261.934,568.84 266.268,574.34 270.5,580C 271.833,580.667 273.167,580.667 274.5,580C 284.312,566.188 293.979,552.354 303.5,538.5 Z"/></g>
<g><path style="opacity:1" fill="#a31714" d="M 193.5,498.5 C 192.049,504.889 192.216,511.223 194,517.5C 194.423,516.044 195.256,515.544 196.5,516C 195.687,517.314 194.687,518.481 193.5,519.5C 193.833,519.833 194.167,520.167 194.5,520.5C 195.719,519.737 196.719,518.737 197.5,517.5C 199.164,518.223 200.831,517.89 202.5,516.5C 204.776,517.213 207.109,517.713 209.5,518C 210.126,518.75 210.626,519.584 211,520.5C 212.376,517.947 213.543,515.28 214.5,512.5C 215.85,511.05 217.516,510.383 219.5,510.5C 215.639,515.555 212.806,521.222 211,527.5C 210.502,530.817 210.335,534.15 210.5,537.5C 210.279,540.097 209.779,540.097 209,537.5C 209.111,542.237 210.277,546.737 212.5,551C 211.017,554.918 212.184,556.418 216,555.5C 216.692,556.025 217.192,556.692 217.5,557.5C 215.831,557.693 214.164,558.693 212.5,560.5C 213.326,561.451 213.492,562.451 213,563.5C 211.708,562.209 210.542,562.209 209.5,563.5C 200.391,553.613 194.724,541.946 192.5,528.5C 191.568,519.516 191.401,510.516 192,501.5C 192.232,500.263 192.732,499.263 193.5,498.5 Z"/></g>
<g><path style="opacity:1" fill="#9b1614" d="M 232.5,512.5 C 234.914,516.764 237.581,520.931 240.5,525C 240.355,525.772 240.022,526.439 239.5,527C 240.737,527.232 241.737,527.732 242.5,528.5C 238.778,527.68 236.445,529.013 235.5,532.5C 235.343,533.873 235.51,535.207 236,536.5C 242.748,544.347 249.248,552.347 255.5,560.5C 255.5,561.5 255.5,562.5 255.5,563.5C 236.867,560.525 227.533,549.525 227.5,530.5C 226.882,523.772 228.549,517.772 232.5,512.5 Z"/></g>
<g><path style="opacity:1" fill="#d3aa5c" d="M 342.5,520.5 C 342.833,520.5 343.167,520.5 343.5,520.5C 343.157,522.483 343.824,523.817 345.5,524.5C 345.5,525.167 345.5,525.833 345.5,526.5C 340.001,553.342 325.001,572.842 300.5,585C 298.564,585.813 296.564,586.313 294.5,586.5C 294.5,585.833 294.5,585.167 294.5,584.5C 311.466,578.202 324.466,567.202 333.5,551.5C 339.129,541.945 342.129,531.612 342.5,520.5 Z"/></g>
<g><path style="opacity:1" fill="#d3a85c" d="M 352.5,526.5 C 352.554,528.632 353.554,529.965 355.5,530.5C 354.182,536.958 352.348,543.291 350,549.5C 340.651,569.348 326.151,584.015 306.5,593.5C 304.847,593.34 303.514,592.674 302.5,591.5C 328.563,579.07 344.896,558.736 351.5,530.5C 351.232,528.901 351.566,527.568 352.5,526.5 Z"/></g>
<g><path style="opacity:1" fill="#9d1e14" d="M 212.5,447.5 C 212.389,448.117 212.056,448.617 211.5,449C 213.55,449.416 214.884,450.583 215.5,452.5C 205.961,461.228 198.461,471.561 193,483.5C 182.115,515.651 187.948,544.317 210.5,569.5C 208.891,569.094 207.557,569.094 206.5,569.5C 207.637,572.47 209.637,574.636 212.5,576C 211.584,576.278 210.918,576.778 210.5,577.5C 193.334,561.502 183.334,541.835 180.5,518.5C 180.231,505.783 182.231,493.45 186.5,481.5C 190.626,472.593 195.793,464.26 202,456.5C 205.098,452.893 208.598,449.893 212.5,447.5 Z"/></g>
<g><path style="opacity:1" fill="#c5271d" d="M 351.5,565.5 C 351.796,563.597 352.463,561.93 353.5,560.5C 355.441,556.446 356.941,552.112 358,547.5C 358.753,553.865 358.586,560.198 357.5,566.5C 358.169,569.028 359.002,569.028 360,566.5C 360.333,564.167 360.667,561.833 361,559.5C 361.809,564.363 361.142,569.03 359,573.5C 356.415,574.885 354.415,574.218 353,571.5C 351.867,573.211 350.367,573.711 348.5,573C 350.693,570.975 351.693,568.475 351.5,565.5 Z"/></g>
<g><path style="opacity:1" fill="#0e1a2f" d="M 308.5,530.5 C 306.833,533.167 305.167,535.833 303.5,538.5C 293.979,552.354 284.312,566.188 274.5,580C 273.167,580.667 271.833,580.667 270.5,580C 266.268,574.34 261.934,568.84 257.5,563.5C 257.068,562.29 256.401,561.29 255.5,560.5C 249.248,552.347 242.748,544.347 236,536.5C 235.51,535.207 235.343,533.873 235.5,532.5C 238.303,530.047 241.303,529.88 244.5,532C 254.239,538.901 263.239,546.734 271.5,555.5C 279.856,545.481 288.19,535.481 296.5,525.5C 298.678,524.796 300.678,524.463 302.5,524.5C 304.302,525.986 306.302,526.986 308.5,527.5C 308.5,528.5 308.5,529.5 308.5,530.5 Z"/></g>
<g><path style="opacity:1" fill="#98110d" d="M 210.5,537.5 C 211.612,542.316 213.445,546.983 216,551.5C 225.935,562.543 238.435,567.876 253.5,567.5C 255.942,567.119 256.609,567.786 255.5,569.5C 255.846,570.696 256.346,570.696 257,569.5C 256.872,571.445 257.038,573.278 257.5,575C 255.641,576.558 254.141,578.391 253,580.5C 251.951,579.483 250.784,579.316 249.5,580C 249.957,580.414 250.291,580.914 250.5,581.5C 247.628,582.783 244.795,582.783 242,581.5C 241.768,582.737 241.268,583.737 240.5,584.5C 228.268,580.262 217.934,573.262 209.5,563.5C 210.542,562.209 211.708,562.209 213,563.5C 213.492,562.451 213.326,561.451 212.5,560.5C 214.164,558.693 215.831,557.693 217.5,557.5C 217.192,556.692 216.692,556.025 216,555.5C 212.184,556.418 211.017,554.918 212.5,551C 210.277,546.737 209.111,542.237 209,537.5C 209.779,540.097 210.279,540.097 210.5,537.5 Z"/></g>
<g><path style="opacity:1" fill="#99110d" d="M 342.5,520.5 C 342.129,531.612 339.129,541.945 333.5,551.5C 330.262,549.866 328.095,550.866 327,554.5C 326.333,553.833 325.667,553.167 325,552.5C 322.688,552.955 320.688,553.955 319,555.5C 318.257,553.355 317.424,553.189 316.5,555C 316.759,556.261 317.426,557.261 318.5,558C 317.049,557.737 315.716,557.904 314.5,558.5C 315.025,559.192 315.692,559.692 316.5,560C 314.741,561.008 313.574,562.508 313,564.5C 312.612,562.285 311.612,560.952 310,560.5C 308.691,564.099 307.191,567.599 305.5,571C 306.738,570.923 307.738,571.089 308.5,571.5C 306.673,575.261 304.007,576.427 300.5,575C 301.505,573.493 302.838,572.327 304.5,571.5C 302.795,571.526 301.295,570.526 300,568.5C 298.4,569.866 296.567,570.866 294.5,571.5C 296.88,573.603 296.213,574.77 292.5,575C 294.26,575.965 294.594,577.132 293.5,578.5C 292.459,576.009 291.626,576.009 291,578.5C 289.333,576.833 287.667,575.167 286,573.5C 285.329,574.252 284.496,574.586 283.5,574.5C 289.351,564.783 295.685,555.45 302.5,546.5C 305.199,544.172 307.699,541.506 310,538.5C 309.421,540.342 308.921,542.342 308.5,544.5C 308.709,545.994 309.376,547.161 310.5,548C 307.183,549.085 306.849,550.585 309.5,552.5C 309.669,551.603 310.002,550.603 310.5,549.5C 311.833,549.167 313.167,548.833 314.5,548.5C 313.674,547.549 313.508,546.549 314,545.5C 316.036,546.102 317.87,547.102 319.5,548.5C 319.564,547.635 319.897,546.635 320.5,545.5C 321.274,544.289 322.107,544.289 323,545.5C 323.739,543.779 324.573,542.113 325.5,540.5C 326.192,541.025 326.692,541.692 327,542.5C 327.739,540.779 328.573,539.113 329.5,537.5C 330.425,538.641 331.259,538.641 332,537.5C 332.667,538.167 333.333,538.833 334,539.5C 335.167,537.667 336.333,535.833 337.5,534C 337.043,533.586 336.709,533.086 336.5,532.5C 338.885,528.882 340.219,524.882 340.5,520.5C 341.813,507.324 342.479,507.324 342.5,520.5 Z"/></g>
<g><path style="opacity:1" fill="#841008" d="M 345.5,526.5 C 346.708,527.234 348.041,527.567 349.5,527.5C 349.343,528.873 349.51,530.207 350,531.5C 350.383,530.944 350.883,530.611 351.5,530.5C 344.896,558.736 328.563,579.07 302.5,591.5C 289.066,596.991 275.066,599.325 260.5,598.5C 241.462,596.977 224.796,589.977 210.5,577.5C 210.918,576.778 211.584,576.278 212.5,576C 209.637,574.636 207.637,572.47 206.5,569.5C 207.557,569.094 208.891,569.094 210.5,569.5C 223.965,582.231 239.965,589.564 258.5,591.5C 268.852,593.038 279.185,592.204 289.5,589C 291.491,588.626 293.158,587.793 294.5,586.5C 296.564,586.313 298.564,585.813 300.5,585C 325.001,572.842 340.001,553.342 345.5,526.5 Z"/></g>
<g><path style="opacity:1" fill="#8e100b" d="M 333.5,551.5 C 324.466,567.202 311.466,578.202 294.5,584.5C 283.878,588.436 272.878,590.103 261.5,589.5C 254.061,589.216 247.061,587.549 240.5,584.5C 241.268,583.737 241.768,582.737 242,581.5C 244.795,582.783 247.628,582.783 250.5,581.5C 250.291,580.914 249.957,580.414 249.5,580C 250.784,579.316 251.951,579.483 253,580.5C 254.141,578.391 255.641,576.558 257.5,575C 257.038,573.278 256.872,571.445 257,569.5C 256.346,570.696 255.846,570.696 255.5,569.5C 256.609,567.786 255.942,567.119 253.5,567.5C 254.398,566.842 255.398,566.176 256.5,565.5C 256.137,564.817 255.804,564.15 255.5,563.5C 255.5,562.5 255.5,561.5 255.5,560.5C 256.401,561.29 257.068,562.29 257.5,563.5C 258.485,567.809 260.319,571.809 263,575.5C 266.04,581.603 270.874,583.769 277.5,582C 279.629,579.561 281.629,577.061 283.5,574.5C 284.496,574.586 285.329,574.252 286,573.5C 287.667,575.167 289.333,576.833 291,578.5C 291.626,576.009 292.459,576.009 293.5,578.5C 294.594,577.132 294.26,575.965 292.5,575C 296.213,574.77 296.88,573.603 294.5,571.5C 296.567,570.866 298.4,569.866 300,568.5C 301.295,570.526 302.795,571.526 304.5,571.5C 302.838,572.327 301.505,573.493 300.5,575C 304.007,576.427 306.673,575.261 308.5,571.5C 307.738,571.089 306.738,570.923 305.5,571C 307.191,567.599 308.691,564.099 310,560.5C 311.612,560.952 312.612,562.285 313,564.5C 313.574,562.508 314.741,561.008 316.5,560C 315.692,559.692 315.025,559.192 314.5,558.5C 315.716,557.904 317.049,557.737 318.5,558C 317.426,557.261 316.759,556.261 316.5,555C 317.424,553.189 318.257,553.355 319,555.5C 320.688,553.955 322.688,552.955 325,552.5C 325.667,553.167 326.333,553.833 327,554.5C 328.095,550.866 330.262,549.866 333.5,551.5 Z"/></g>
<g><path style="opacity:1" fill="#de8374" d="M 353.5,560.5 C 352.463,561.93 351.796,563.597 351.5,565.5C 347.592,570.75 343.259,575.75 338.5,580.5C 335.754,582.803 332.754,584.303 329.5,585C 333,582.666 336,579.832 338.5,576.5C 344.307,571.547 348.641,565.547 351.5,558.5C 353.203,557.34 353.869,558.007 353.5,560.5 Z"/></g>
<g><path style="opacity:1" fill="#921711" d="M 180.5,441.5 C 180.174,444.311 179.341,446.978 178,449.5C 177.993,471.682 171.66,491.682 159,509.5C 157.318,514.594 157.152,519.594 158.5,524.5C 159.496,524.414 160.329,524.748 161,525.5C 161.219,524.062 161.719,522.729 162.5,521.5C 162.833,521.833 163.167,522.167 163.5,522.5C 164.847,529.871 167.347,536.871 171,543.5C 177.966,550.092 183.466,557.758 187.5,566.5C 189.65,573.336 192.316,580.002 195.5,586.5C 199.306,591.806 203.64,596.64 208.5,601C 216.424,601.882 224.424,603.382 232.5,605.5C 233.833,605.5 235.167,605.5 236.5,605.5C 243.5,606.833 250.5,608.167 257.5,609.5C 251.963,609.288 246.463,609.622 241,610.5C 239.08,609.912 237.413,608.912 236,607.5C 232.578,609.973 229.078,609.973 225.5,607.5C 224.833,607.833 224.167,608.167 223.5,608.5C 219.221,607.726 214.887,607.226 210.5,607C 206.893,604.267 203.393,601.434 200,598.5C 199.282,599.451 198.449,599.617 197.5,599C 196.773,597.601 196.273,596.101 196,594.5C 195.667,594.833 195.333,595.167 195,595.5C 194.364,591.86 192.531,589.194 189.5,587.5C 187.381,580.331 184.547,573.331 181,566.5C 174.698,559.197 168.032,552.197 161,545.5C 153.938,536.318 151.605,525.984 154,514.5C 158.229,505.271 162.896,496.271 168,487.5C 170.738,477.714 172.072,467.714 172,457.5C 173.555,451.385 176.388,446.052 180.5,441.5 Z"/></g>
<g><path style="opacity:1" fill="#b6251e" d="M 187.5,566.5 C 188.833,568.167 190.167,569.833 191.5,571.5C 199.804,589.485 213.471,600.818 232.5,605.5C 224.424,603.382 216.424,601.882 208.5,601C 203.64,596.64 199.306,591.806 195.5,586.5C 192.316,580.002 189.65,573.336 187.5,566.5 Z"/></g>
<g><path style="opacity:1" fill="#bf833a" d="M 294.5,584.5 C 294.5,585.167 294.5,585.833 294.5,586.5C 293.158,587.793 291.491,588.626 289.5,589C 279.185,592.204 268.852,593.038 258.5,591.5C 260.857,591.663 263.19,591.497 265.5,591C 263.942,590.79 262.609,590.29 261.5,589.5C 272.878,590.103 283.878,588.436 294.5,584.5 Z"/></g>
<g><path style="opacity:1" fill="#e28d78" d="M 192.5,570.5 C 195.154,574.463 197.82,578.463 200.5,582.5C 211.321,594.412 224.654,601.912 240.5,605C 239.207,605.49 237.873,605.657 236.5,605.5C 235.167,605.5 233.833,605.5 232.5,605.5C 213.471,600.818 199.804,589.485 191.5,571.5C 191.5,570.833 191.833,570.5 192.5,570.5 Z"/></g>
<g><path style="opacity:1" fill="#c59349" d="M 302.5,591.5 C 303.514,592.674 304.847,593.34 306.5,593.5C 291.03,601.528 274.696,604.528 257.5,602.5C 261.182,602.665 264.848,602.499 268.5,602C 268.167,601.667 267.833,601.333 267.5,601C 268.5,600.667 269.5,600.333 270.5,600C 266.975,599.821 263.641,599.321 260.5,598.5C 275.066,599.325 289.066,596.991 302.5,591.5 Z"/></g>
<g><path style="opacity:1" fill="#b82e27" d="M 200.5,582.5 C 201.552,582.351 202.552,582.517 203.5,583C 208.662,588.071 214.329,592.404 220.5,596C 239.187,602.775 258.52,606.608 278.5,607.5C 274.5,608.167 270.5,608.833 266.5,609.5C 265.833,609.5 265.5,609.833 265.5,610.5C 264.833,610.5 264.167,610.5 263.5,610.5C 261.621,609.659 259.621,609.325 257.5,609.5C 250.5,608.167 243.5,606.833 236.5,605.5C 237.873,605.657 239.207,605.49 240.5,605C 224.654,601.912 211.321,594.412 200.5,582.5 Z"/></g>
<g><path style="opacity:1" fill="#d95446" d="M 265.5,610.5 C 265.5,609.833 265.833,609.5 266.5,609.5C 273.175,609.334 279.842,609.5 286.5,610C 283.861,611.118 281.027,611.618 278,611.5C 274.142,611.321 270.309,610.987 266.5,610.5C 266.167,610.5 265.833,610.5 265.5,610.5 Z"/></g>
<g><path style="opacity:1" fill="#881912" d="M 189.5,587.5 C 192.531,589.194 194.364,591.86 195,595.5C 195.333,595.167 195.667,594.833 196,594.5C 196.273,596.101 196.773,597.601 197.5,599C 198.449,599.617 199.282,599.451 200,598.5C 203.393,601.434 206.893,604.267 210.5,607C 214.887,607.226 219.221,607.726 223.5,608.5C 224.167,608.167 224.833,607.833 225.5,607.5C 229.078,609.973 232.578,609.973 236,607.5C 237.413,608.912 239.08,609.912 241,610.5C 246.463,609.622 251.963,609.288 257.5,609.5C 259.621,609.325 261.621,609.659 263.5,610.5C 264.697,613.382 266.697,615.549 269.5,617C 276.153,617.352 282.82,618.019 289.5,619C 290.665,620.084 291.998,620.917 293.5,621.5C 299.395,621.157 304.062,618.657 307.5,614C 308.946,612.702 310.279,612.535 311.5,613.5C 303.655,622.804 293.655,626.304 281.5,624C 271.307,619.936 260.974,616.269 250.5,613C 239.161,613.239 227.828,613.573 216.5,614C 201.713,611.047 192.713,602.213 189.5,587.5 Z"/></g>
<g><path style="opacity:1" fill="#99150f" d="M 360.5,577.5 C 358.332,580.5 355.666,583 352.5,585C 343.116,588.193 334.116,592.193 325.5,597C 320.593,602.398 315.927,607.898 311.5,613.5C 310.279,612.535 308.946,612.702 307.5,614C 304.062,618.657 299.395,621.157 293.5,621.5C 291.998,620.917 290.665,620.084 289.5,619C 282.82,618.019 276.153,617.352 269.5,617C 266.697,615.549 264.697,613.382 263.5,610.5C 264.167,610.5 264.833,610.5 265.5,610.5C 265.833,610.5 266.167,610.5 266.5,610.5C 267.6,611.558 268.934,612.392 270.5,613C 275.833,613.667 281.167,614.333 286.5,615C 287.851,616.814 288.851,616.481 289.5,614C 295.371,611.377 301.038,608.377 306.5,605C 309.858,604.627 310.192,605.461 307.5,607.5C 308.002,608.521 308.668,608.688 309.5,608C 314.006,603.161 318.839,598.661 324,594.5C 324.29,592.956 324.956,591.623 326,590.5C 326.333,590.833 326.667,591.167 327,591.5C 328.833,590.333 330.333,588.833 331.5,587C 341.271,583.761 350.938,580.595 360.5,577.5 Z"/></g>
</svg>


